PathFileType	4	(X/Y/Z)	./resultDataOpenSim/trcMotMarkerGrf/sub09/qtm-03-08.trc
DataRate	CameraRate	NumFrames	NumMarkers	Units	OrigDataRate	OrigDataStartFrame	OrigNumFrames
250.000000	250.000000	11	24	m	250.000000	182	485
Frame#	Time	L.Toe.Tip			R.Toe.Tip			L.Ankle.Lat			R.Ankle.Lat			L.Ankle.Med			R.Ankle.Med			L.Heel			R.Heel			L.Knee.Lat			R.Knee.Lat			L.Knee.Med			R.Knee.Med			L.Thigh.Upper			R.Thigh.Upper			L.ASIS			R.ASIS			V.Sacral			L.Acromium			R.Acromium			C7			L.Elbow			R.Elbow			L.Wrist.Lat			R.Wrist.Lat
		X1	Y1	Z1	X2	Y2	Z2	X3	Y3	Z3	X4	Y4	Z4	X5	Y5	Z5	X6	Y6	Z6	X7	Y7	Z7	X8	Y8	Z8	X9	Y9	Z9	X10	Y10	Z10	X11	Y11	Z11	X12	Y12	Z12	X13	Y13	Z13	X14	Y14	Z14	X15	Y15	Z15	X16	Y16	Z16	X17	Y17	Z17	X18	Y18	Z18	X19	Y19	Z19	X20	Y20	Z20	X21	Y21	Z21	X22	Y22	Z22	X23	Y23	Z23	X24	Y24	Z24

182	0.724	0.14302129	-0.0052638188	0.020036046	-0.61997777	0.047338974	0.11535331	-0.0039623978	0.023455166	-0.02884686	-0.71256217	0.16012169	0.15470157	0.0113688	0.04413773	0.066950647	-0.67089021	0.17471487	0.064795265	-0.076067045	-0.013282217	0.014805277	-0.77067837	0.18710639	0.096822214	-0.0070788872	0.44009502	-0.079949588	-0.33335292	0.41807015	0.21581805	-0.01175854	0.44410943	0.046075336	-0.33730295	0.40286127	0.090177443	-0.20297778	0.8159516	-0.12494912	-0.25499602	0.80615509	0.24777269	-0.13826863	0.89928003	-0.053980499	-0.14256174	0.88681006	0.18685594	-0.31277467	0.9464818	0.057206572	-0.17239959	1.3380932	-0.12169042	-0.19513063	1.3636541	0.20916783	-0.24842738	1.3980673	0.040333599	-0.3298773	1.0104365	-0.16663963	-0.32105954	1.022115	0.30245694	-0.26077537	0.76733536	-0.23199193	-0.1506801	0.80719512	0.32350688
183	0.728	0.14347676	-0.0061626961	0.020573423	-0.61768415	0.048874254	0.11579347	-0.0032774852	0.023155076	-0.028480427	-0.70573614	0.16557193	0.15544918	0.011849112	0.043666378	0.067451703	-0.66312016	0.17863691	0.06596583	-0.075818235	-0.013127362	0.014793023	-0.76263037	0.19431019	0.097363442	-0.0015338521	0.43935762	-0.080439182	-0.32301947	0.41673537	0.21735968	-0.005686921	0.44353473	0.045719782	-0.32593067	0.40024103	0.090844777	-0.19688362	0.81628655	-0.12568468	-0.24711797	0.80484795	0.2474405	-0.13173469	0.89992739	-0.054913369	-0.13579335	0.88600834	0.18580736	-0.30513209	0.94639444	0.058293911	-0.16507276	1.3379142	-0.12175163	-0.18784696	1.3637998	0.20891492	-0.24156705	1.3976776	0.040188168	-0.32197489	1.0100127	-0.16663373	-0.31479002	1.0229411	0.30192907	-0.25166476	0.76697888	-0.23187859	-0.14611892	0.80667786	0.32366787
184	0.732	0.14368337	-0.0068780901	0.021345071	-0.61507819	0.050532656	0.11630833	-0.0027938224	0.022854234	-0.028111065	-0.69833297	0.17099898	0.15619798	0.011975821	0.043238327	0.067975212	-0.65487892	0.18232818	0.067095599	-0.075748258	-0.013078873	0.014730166	-0.75404125	0.2014735	0.097929788	0.003604079	0.43853587	-0.08085775	-0.3118089	0.41489004	0.21849624	7.0593318e-05	0.44262667	0.045427376	-0.31437207	0.39763512	0.091430065	-0.19079778	0.81642778	-0.12630293	-0.23930253	0.80359443	0.24704803	-0.12523174	0.90048331	-0.055868617	-0.12908628	0.88528172	0.18476626	-0.29782299	0.94623605	0.05876272	-0.15777634	1.3377985	-0.12181002	-0.18052408	1.3639663	0.20869602	-0.23461964	1.3974293	0.039992441	-0.3139594	1.0095971	-0.16677725	-0.3085543	1.0238021	0.30148818	-0.24245962	0.76667002	-0.2317428	-0.14156257	0.80621829	0.3238224
185	0.736	0.14377696	-0.0074504091	0.022206095	-0.61209239	0.052322112	0.11692231	-0.002400677	0.022560695	-0.027694307	-0.69037693	0.17641051	0.15695071	0.01194692	0.042832092	0.068527851	-0.64630084	0.18596506	0.068196235	-0.075782902	-0.013058505	0.01468085	-0.74494941	0.20858397	0.098613006	0.0084292066	0.43759429	-0.08117478	-0.30014658	0.4128514	0.21916254	0.0055333437	0.44147018	0.045176935	-0.30262357	0.39507097	0.091932079	-0.18471653	0.81641502	-0.12682356	-0.2315584	0.80241119	0.24660654	-0.11875126	0.90092318	-0.056767685	-0.12242852	0.88464265	0.18376379	-0.29133323	0.94588371	0.058534263	-0.15050761	1.337742	-0.12187006	-0.17318375	1.3641453	0.20851377	-0.22763228	1.3973241	0.039805239	-0.30581132	1.009178	-0.16711474	-0.30234815	1.0246866	0.30114218	-0.23316281	0.76640407	-0.23158147	-0.13696239	0.80581141	0.3239811
186	0.74	0.14387352	-0.0079201613	0.022982611	-0.60867392	0.05423912	0.11764874	-0.0020584401	0.022282438	-0.02721785	-0.68191291	0.18179947	0.15771314	0.011930838	0.042438596	0.069091313	-0.63740561	0.18967928	0.069253316	-0.075826291	-0.013037367	0.014722144	-0.73542789	0.21562574	0.099471927	0.01304214	0.4365712	-0.081394893	-0.2883895	0.41100464	0.21958445	0.01067959	0.44014951	0.044957438	-0.29066632	0.39259234	0.092388563	-0.1786332	0.81629885	-0.1272818	-0.22390695	0.80132057	0.24612469	-0.11226846	0.90124909	-0.057513993	-0.11589948	0.88409793	0.1827901	-0.28563352	0.9453099	0.057700061	-0.14325812	1.3377374	-0.12192818	-0.16586034	1.3643395	0.20836676	-0.22068152	1.3973491	0.039717096	-0.29765175	1.0087672	-0.16752645	-0.29616897	1.0255888	0.30090478	-0.22377632	0.7661796	-0.23138749	-0.13228068	0.80545969	0.32415361
187	0.744	0.14401917	-0.0083133837	0.023559474	-0.60479959	0.056272441	0.11848484	-0.0017796141	0.022031282	-0.026708013	-0.67297493	0.18715452	0.15850041	0.01200382	0.042067214	0.069619479	-0.62818328	0.19351174	0.070201135	-0.075827932	-0.013005033	0.014846312	-0.72558455	0.22260846	0.10053251	0.01753224	0.43552148	-0.081524117	-0.27668752	0.40944779	0.21997123	0.015386332	0.4387346	0.04472721	-0.27848211	0.39026905	0.092852996	-0.17253856	0.81612553	-0.12771002	-0.21638121	0.80035224	0.24560659	-0.10576274	0.90149836	-0.0580773	-0.10954338	0.88366578	0.18185035	-0.28009881	0.94472584	0.05673464	-0.1360248	1.3377807	-0.12197733	-0.15858781	1.3645599	0.208253	-0.21375288	1.3974805	0.039689312	-0.28959629	1.0083843	-0.16788416	-0.29000724	1.0265016	0.30078817	-0.21430774	0.76600118	-0.23115259	-0.12751648	0.80516608	0.32434757
188	0.748	0.14419924	-0.0086377752	0.023916184	-0.60044647	0.058418483	0.11941279	-0.0015585983	0.021813606	-0.026228683	-0.6636033	0.19244409	0.15930227	0.012166188	0.041736453	0.070057835	-0.61862608	0.19743677	0.070974672	-0.075790174	-0.012953497	0.014974874	-0.71549901	0.22954114	0.10176462	0.02194163	0.43449227	-0.081550133	-0.26512525	0.40811392	0.22035212	0.01955404	0.43731514	0.044461043	-0.26609926	0.38819594	0.09332638	-0.16641884	0.81594728	-0.12812699	-0.20901586	0.79953533	0.24505464	-0.099315802	0.90172181	-0.058613888	-0.10330644	0.88337459	0.18099028	-0.27411309	0.94445076	0.056129718	-0.1288113	1.3378761	-0.12201667	-0.15139273	1.3648167	0.20817095	-0.20675466	1.397694	0.039557474	-0.28164439	1.0080381	-0.16818037	-0.28384971	1.0274182	0.30079447	-0.20476526	0.76587672	-0.23087319	-0.12271894	0.80492293	0.3245604
189	0.752	0.14437623	-0.0088947274	0.02410701	-0.59555715	0.060687554	0.12041693	-0.0013440748	0.021621022	-0.025860023	-0.65387308	0.19760287	0.16007172	0.012384697	0.041462384	0.070374184	-0.6087545	0.20141529	0.071607372	-0.075734554	-0.012883706	0.015036775	-0.70511205	0.23636634	0.10303223	0.026233402	0.4335353	-0.081441069	-0.25363468	0.40696233	0.22065054	0.023262198	0.43603036	0.044215186	-0.25360159	0.38646131	0.093728335	-0.16026323	0.81582615	-0.12854045	-0.20183128	0.79888775	0.24447838	-0.093076635	0.90194945	-0.059341453	-0.097115927	0.88324051	0.1802563	-0.26759809	0.94466452	0.055950229	-0.12161975	1.3380316	-0.12205248	-0.14429215	1.3651157	0.20811806	-0.19965462	1.3979859	0.039243637	-0.27373884	1.0077311	-0.1684761	-0.27769067	1.0283397	0.30091344	-0.19515059	0.76581272	-0.23054808	-0.11798298	0.8047039	0.32477496
190	0.756	0.14452304	-0.0090943039	0.024211656	-0.59004093	0.06309371	0.12149992	-0.0010876045	0.021435415	-0.025643343	-0.64386751	0.20256502	0.16076505	0.012617883	0.04125074	0.070574646	-0.59865019	0.20542126	0.07222792	-0.075678125	-0.012805304	0.015013892	-0.69425581	0.24296151	0.10413777	0.030293193	0.43272246	-0.081167787	-0.24199298	0.40599245	0.22079028	0.026663168	0.43500876	0.044063535	-0.24108992	0.38511024	0.093972495	-0.15406822	0.81582174	-0.12894959	-0.19483203	0.79841486	0.24389891	-0.087043822	0.90218435	-0.060228415	-0.090960025	0.88325757	0.17966067	-0.26085343	0.94533553	0.055974519	-0.11444895	1.3382517	-0.12209157	-0.13729225	1.3654628	0.20808881	-0.19254008	1.3983817	0.038883261	-0.2658483	1.007469	-0.16881037	-0.27153356	1.0292766	0.30112361	-0.18546251	0.76581347	-0.23017624	-0.11341754	0.80447379	0.32497009
191	0.76	0.14463357	-0.009256655	0.024288561	-0.58381065	0.065638824	0.12267157	-0.00079508776	0.021247142	-0.025551101	-0.6336324	0.20731693	0.16136988	0.012827277	0.041095402	0.0706918	-0.58838986	0.20943127	0.072925524	-0.075631712	-0.012728791	0.014936035	-0.6828793	0.24924476	0.10499267	0.033995338	0.43214868	-0.080800347	-0.22998356	0.40519877	0.220738	0.029805273	0.43429258	0.04400941	-0.22864867	0.38414207	0.094041446	-0.14783291	0.81598673	-0.12934631	-0.18802115	0.79811841	0.24334	-0.081051893	0.90242718	-0.06102418	-0.084877723	0.88341105	0.17919292	-0.25413781	0.94632628	0.056052002	-0.10730141	1.338536	-0.12213659	-0.1303918	1.3658704	0.20807739	-0.18551577	1.3989089	0.038659423	-0.25797465	1.0072616	-0.16918116	-0.26538514	1.0302413	0.30139866	-0.17570433	0.7658862	-0.2297581	-0.10908242	0.80421705	0.32513549
192	0.764	0.14471235	-0.0093979943	0.024360857	-0.57681042	0.068316497	0.12392921	-0.00051971425	0.021071284	-0.025522676	-0.62317635	0.2119039	0.16189402	0.012987272	0.040983971	0.070760694	-0.57797378	0.21341384	0.073670299	-0.07560616	-0.012660336	0.014849498	-0.67116233	0.25522403	0.10567795	0.037344605	0.43189719	-0.080615212	-0.21754812	0.40456166	0.22050365	0.032656145	0.43384774	0.044012826	-0.21632229	0.38353773	0.093969094	-0.14155297	0.81636972	-0.1297194	-0.18140826	0.79800447	0.24281559	-0.074996816	0.90269851	-0.061574567	-0.078908924	0.88369282	0.17884085	-0.24752721	0.94750603	0.056144101	-0.10018079	1.3388854	-0.12218196	-0.12358646	1.366359	0.20808199	-0.17859385	1.3995629	0.038589495	-0.25012613	1.007116	-0.16957089	-0.25924995	1.0312418	0.30171809	-0.16588318	0.76604442	-0.22929166	-0.10491761	0.8039631	0.32528135
